<svg width="610" height="610" xmlns="http://www.w3.org/2000/svg">

 <metadata id="imagebot_5">image/svg+xml</metadata>
 <g display="inline" label="square" id="imagebot_2">
  <path transform="matrix(1, 0, 0, 1, 5, -397.362)" display="inline" label="square" fill="#007fff" id="imagebot_3" d="M391.75281,455.39938L369.58467,455.52186L371.72799,524.23086L299.52844,475.91411L300.81444,514.18783L532.35517,667.77262C544.0855,667.94056 556.05065,665.36831 548.95066,642.7263L394.38605,539.35663L391.75281,455.39938zM292.73102,475.48544L44.28861,643.21619C37.39988,663.95242 50.97836,668.57254 60.8841,668.26251L293.34341,514.61652L292.73102,475.48544zM126.10251,635.99013L98.178,657.36218L98.178,932.1369L125.18394,932.1369L126.10251,635.99014zM467.0755,635.99013L467.99406,932.13689L495,932.13689L495,657.36217L467.0755,635.99012zM82.80729,937.28088C79.02919,941.93496 77.23315,946.58905 82.80729,951.24313L510.37074,951.24313C513.51949,947.63863 516.44412,943.95942 510.37074,937.28088L82.80729,937.28088z"/>
  <title>square</title>
 </g>
</svg>